<?xml version="1.0" encoding="utf-8"?>
<!-- Generator: Adobe Illustrator 16.0.0, SVG Export Plug-In . SVG Version: 6.00 Build 0)  -->
<!DOCTYPE svg PUBLIC "-//W3C//DTD SVG 1.1//EN" "http://www.w3.org/Graphics/SVG/1.1/DTD/svg11.dtd">
<svg version="1.1" id="Layer_1" xmlns="http://www.w3.org/2000/svg" xmlns:xlink="http://www.w3.org/1999/xlink" x="0px" y="0px"
	 width="173px" height="49px" viewBox="0 0 173 49" enable-background="new 0 0 173 49" xml:space="preserve">
<g transform="scale(7.297204781778424) translate(10, 10)">
	<g id="SvgjsG3121" transform="matrix(1.0024352956594158,0,0,1.0024352956594158,0.39853939620242773,81.22597294556093)">
		<path fill="#BF2126" d="M-8.763-85.76l-0.257,0.778h-0.13l-0.174-0.464l-0.173,0.464h-0.13l-0.257-0.778h0.189l0.14,0.431
			l0.16-0.431h0.142l0.161,0.431l0.14-0.431H-8.763z M-7.967-85.76h0.179v0.778h-0.179v-0.308h-0.295v0.308h-0.179v-0.778h0.179
			v0.305h0.295V-85.76z M-7.254-85.147h0.319v0.164h-0.341h-0.157v-0.778h0.179h0.309v0.164h-0.309v0.141h0.231v0.161h-0.231
			V-85.147L-7.254-85.147z M-6.095-85.76h0.179v0.778h-0.137l-0.364-0.452v0.452h-0.179v-0.778h0.139l0.362,0.452V-85.76z
			 M-4.563-85.414c0.078,0.022,0.158,0.092,0.158,0.203c0,0.142-0.089,0.229-0.283,0.229h-0.317v-0.778h0.296
			c0.163,0,0.246,0.092,0.246,0.197C-4.464-85.478-4.52-85.434-4.563-85.414z M-4.726-85.604h-0.1v0.139h0.1
			c0.063,0,0.084-0.029,0.084-0.07C-4.642-85.58-4.669-85.604-4.726-85.604z M-4.699-85.138c0.079,0,0.114-0.033,0.114-0.097
			c0-0.053-0.036-0.088-0.123-0.088h-0.119v0.184H-4.699z M-3.899-85.147h0.295v0.164h-0.474v-0.778h0.179V-85.147z M-2.882-85.771
			c0.22,0,0.404,0.163,0.404,0.4c0,0.237-0.184,0.4-0.404,0.4c-0.22,0-0.404-0.163-0.404-0.4
			C-3.287-85.608-3.102-85.771-2.882-85.771z M-2.882-85.139c0.126,0,0.219-0.098,0.219-0.232c0-0.135-0.093-0.232-0.219-0.232
			c-0.125,0-0.218,0.098-0.218,0.232C-3.1-85.237-3.008-85.139-2.882-85.139z M-1.481-85.065c-0.07,0.062-0.161,0.094-0.267,0.094
			c-0.22,0-0.407-0.163-0.407-0.4c0-0.237,0.187-0.4,0.407-0.4c0.104,0,0.194,0.033,0.262,0.092l-0.108,0.121
			c-0.039-0.026-0.091-0.045-0.143-0.045c-0.137,0-0.231,0.098-0.231,0.232c0,0.134,0.095,0.232,0.231,0.232
			c0.054,0,0.11-0.021,0.149-0.052L-1.481-85.065z M-0.651-84.982l-0.228-0.325l-0.09,0.103v0.222h-0.184v-0.778h0.184v0.319
			l0.266-0.319h0.22l-0.285,0.327l0.323,0.451H-0.651L-0.651-84.982z M0.527-85.065c-0.07,0.062-0.161,0.094-0.267,0.094
			c-0.22,0-0.407-0.163-0.407-0.4c0-0.237,0.187-0.4,0.407-0.4c0.104,0,0.194,0.033,0.262,0.092l-0.108,0.121
			c-0.039-0.026-0.091-0.045-0.143-0.045c-0.137,0-0.231,0.098-0.231,0.232c0,0.134,0.095,0.232,0.231,0.232
			c0.054,0,0.11-0.021,0.149-0.052L0.527-85.065z M1.328-85.76h0.179v0.778H1.328v-0.308H1.034v0.308H0.855v-0.778h0.179v0.305
			h0.295V-85.76z M2.483-84.982l-0.054-0.129H2.063l-0.054,0.129h-0.19l0.346-0.778h0.163l0.346,0.778H2.483L2.483-84.982z
			 M2.125-85.257h0.242l-0.121-0.286L2.125-85.257z M3.163-85.76v0.778H2.984v-0.778H3.163z M4.019-85.76h0.179v0.778H4.061
			l-0.364-0.452v0.452H3.518v-0.778h0.139l0.362,0.452V-85.76z M5.948-85.76v0.778H5.764v-0.375l-0.159,0.375H5.45l-0.157-0.373
			v0.373H5.109v-0.778h0.176l0.244,0.54l0.242-0.54H5.948L5.948-85.76z M6.482-85.147h0.319v0.164H6.46H6.304v-0.778h0.179h0.309
			v0.164H6.482v0.141h0.231v0.161H6.482V-85.147L6.482-85.147z M7.319-85.147h0.319v0.164H7.297H7.14v-0.778h0.179h0.309v0.164
			H7.319v0.141H7.55v0.161H7.319V-85.147L7.319-85.147z M8.511-85.76v0.164H8.322v0.613H8.143v-0.613H7.954v-0.164H8.511z
			 M9.07-85.773c0.14,0,0.225,0.087,0.268,0.16l-0.131,0.079c-0.043-0.056-0.081-0.081-0.136-0.081
			c-0.048,0-0.083,0.028-0.083,0.067c0,0.04,0.022,0.06,0.078,0.079l0.052,0.019c0.181,0.063,0.244,0.143,0.244,0.247
			c0,0.162-0.154,0.239-0.287,0.239c-0.142,0-0.251-0.084-0.29-0.192l0.137-0.073c0.028,0.05,0.069,0.104,0.153,0.104
			c0.058,0,0.101-0.023,0.101-0.076c0-0.048-0.027-0.07-0.11-0.101L9.02-85.319c-0.114-0.041-0.211-0.096-0.211-0.238
			C8.809-85.683,8.929-85.773,9.07-85.773L9.07-85.773z M10.863-84.982l-0.054-0.129h-0.366l-0.054,0.129h-0.19l0.346-0.778h0.163
			l0.346,0.778H10.863L10.863-84.982z M10.505-85.257h0.242l-0.121-0.286L10.505-85.257z M11.797-84.982l-0.159-0.254h-0.096v0.254
			h-0.179v-0.778h0.277c0.174,0,0.29,0.105,0.29,0.268c0,0.103-0.049,0.181-0.131,0.221l0.187,0.289H11.797L11.797-84.982z
			 M11.543-85.595v0.207h0.087c0.072,0,0.122-0.026,0.122-0.103c0-0.077-0.05-0.103-0.122-0.103H11.543z M12.843-85.76v0.164h-0.189
			v0.613h-0.179v-0.613h-0.189v-0.164H12.843z"/>
	</g>
	<g id="SvgjsG3122" transform="matrix(2.082201172093034,0,0,2.082201172093034,-2.4986424986696196,-0.4932070325582032)">
		<path fill="#010101" d="M-2.893-4.048h0.179v0.778H-2.85l-0.364-0.452v0.452h-0.179v-0.778h0.139l0.362,0.452V-4.048z
			 M-2.08-3.885h-0.316v0.148h0.259v0.152h-0.259v0.314H-2.58v-0.778h0.5V-3.885z M-1.44-4.048v0.164h-0.189v0.613h-0.179v-0.613
			h-0.189v-0.164H-1.44z"/>
	</g>
	<g id="SvgjsG3123" transform="matrix(0.060788625356961876,0,0,0.060788625356961876,90.71434963445594,-4.157061348181545)">
		<g>
			<g>
				<path fill="#BF2126" d="M-1531.53-83.089c0.068,0.671-0.077,1.239-0.632,1.55c-0.412,0.233-0.817,0.04-1.195-0.227
					c-0.271-0.189-0.544-0.379-0.832-0.546c-2.64-1.528-5.288-3.181-7.921-4.709c-1.268-0.733-1.189-0.7-0.084-1.539
					c1.51-1.156,2.695-0.955,4.372-0.018c1.642,0.922,2.871,1.616,4.348,2.505C-1532.241-85.449-1531.596-84.744-1531.53-83.089z"/>
			</g>
			<g>
				<path fill="#BF2126" d="M-1519.913-67.747c-0.55,0.394-1.118,0.55-1.662,0.222c-0.405-0.244-0.438-0.693-0.401-1.149
					c0.029-0.332,0.057-0.66,0.057-0.995c0.011-3.049,0.128-6.171,0.143-9.209c0.007-1.462,0.018-1.378,1.294-0.839
					c1.757,0.738,2.173,1.86,2.188,3.782c0.022,1.882,0.033,3.293-0.011,5.017C-1518.22-69.534-1518.508-68.629-1519.913-67.747z"/>
			</g>
			<g>
				<path fill="#BF2126" d="M-1527.435-50.031c-0.61-0.284-1.028-0.693-1.017-1.328c0.011-0.473,0.383-0.729,0.795-0.916
					c0.299-0.141,0.601-0.284,0.889-0.445c2.648-1.51,5.416-2.961,8.06-4.46c1.272-0.722,1.206-0.674,1.372,0.7
					c0.233,1.887-0.533,2.805-2.188,3.782c-1.622,0.955-2.844,1.667-4.354,2.488C-1525.04-49.454-1525.974-49.254-1527.435-50.031z"
					/>
			</g>
			<g>
				<path fill="#BF2126" d="M-1546.544-47.737c-0.062-0.671,0.088-1.239,0.645-1.543c0.416-0.229,0.817-0.035,1.193,0.231
					c0.273,0.196,0.546,0.379,0.828,0.55c2.629,1.545,5.266,3.223,7.884,4.773c1.261,0.744,1.182,0.711,0.073,1.539
					c-1.523,1.145-2.701,0.938-4.372-0.018c-1.64-0.933-2.862-1.634-4.328-2.538C-1545.849-45.371-1546.489-46.082-1546.544-47.737z
					"/>
			</g>
			<g>
				<path fill="#BF2126" d="M-1558.05-63.17c0.55-0.387,1.118-0.537,1.662-0.209c0.405,0.244,0.434,0.693,0.39,1.149
					c-0.035,0.332-0.062,0.66-0.062,0.995c-0.033,3.049-0.172,6.171-0.211,9.209c-0.018,1.462-0.029,1.378-1.301,0.834
					c-1.748-0.751-2.155-1.878-2.16-3.8c-0.007-1.884-0.007-3.296,0.044-5.017C-1559.753-61.386-1559.454-62.296-1558.05-63.17z"/>
			</g>
			<g>
				<path fill="#BF2126" d="M-1550.388-80.821c0.612,0.282,1.021,0.698,1.006,1.339c-0.011,0.471-0.39,0.722-0.806,0.909
					c-0.299,0.141-0.601,0.28-0.889,0.44c-2.662,1.488-5.438,2.921-8.093,4.399c-1.279,0.711-1.206,0.66-1.367-0.711
					c-0.216-1.889,0.555-2.805,2.217-3.765c1.634-0.944,2.855-1.645,4.377-2.457C-1552.784-81.416-1551.844-81.612-1550.388-80.821z
					"/>
			</g>
			<g>
				<path fill="#BF2126" d="M-1526.192-86.977c-2.221,0-4.026,1.805-4.026,4.027c0,1.51,0.839,2.833,2.072,3.522
					c-0.022,3.555-0.033,7.104-0.016,10.66c0.004,0.973-0.396,1.416-1.178,2.039c-0.456,0.368-0.823,0.689-1.112,0.999
					c-0.262,0.277-0.656,0.394-1.028,0.306l-2.593-0.601c0.328,1.134,0.044,2.373-0.74,3.256l3.333,0.773
					c0.123,0.026,0.24,0.026,0.357,0.011c0.154,0.062,0.372-0.022,0.638-0.172c0.817-0.473,3.494-1.968,4.026-2.294
					c1.184-0.724,1.711-1.385,1.677-2.796c-0.084-3.972-0.099-7.954,0.018-11.926c1.521-0.577,2.6-2.05,2.6-3.767
					C-1522.158-85.171-1523.968-86.977-1526.192-86.977z M-1524.752-80.733c-0.412,0.266-0.905,0.427-1.44,0.427
					c-0.771,0-1.46-0.328-1.944-0.854c-0.434-0.473-0.693-1.101-0.693-1.783c0-1.462,1.182-2.64,2.637-2.64
					c1.462,0,2.64,1.184,2.64,2.64C-1523.548-82.021-1524.025-81.207-1524.752-80.733z"/>
			</g>
			<g>
				<path fill="#BF2126" d="M-1536.035-63.808l-0.449,0.478l-0.106,0.117l-0.561,0.594c-0.451,0.484-1.127,0.689-1.766,0.539
					l-0.656-0.15l-0.112-0.029l-0.843-0.194c-0.649-0.15-1.167-0.638-1.356-1.277l-0.178-0.601l-0.033-0.121l-0.249-0.85
					c-0.178-0.63-0.022-1.305,0.42-1.783l0.451-0.478l0.106-0.112l0.566-0.605c0.35-0.379,0.845-0.583,1.349-0.583
					c0.139,0,0.277,0.011,0.412,0.044l0.649,0.15l0.123,0.029l0.832,0.194c0.649,0.15,1.173,0.641,1.356,1.279l0.178,0.61
					l0.033,0.123l0.249,0.85C-1535.429-64.964-1535.59-64.279-1536.035-63.808z"/>
			</g>
		</g>
		<path fill="#BF2126" d="M-1517.359-66.851c-2.16,0-3.932,1.711-4.027,3.855c-3.1,1.755-6.195,3.516-9.277,5.303
			c-0.839,0.489-1.422,0.361-2.349-0.011c-0.583-0.233-1.072-0.394-1.506-0.489c-0.394-0.084-0.707-0.372-0.817-0.755l-0.733-2.494
			c-0.65,0.656-1.534,1.01-2.439,1.01c-0.255,0-0.522-0.026-0.773-0.088l0.969,3.3c0.059,0.205,0.194,0.372,0.361,0.478
			c0.077,0.11,0.22,0.211,0.41,0.321c0.817,0.478,3.445,2.05,3.993,2.351c1.218,0.665,2.052,0.793,3.263,0.066
			c3.355-2.028,6.754-3.994,10.208-5.849c0.718,0.656,1.673,1.055,2.717,1.055c2.223,0,4.029-1.805,4.029-4.027
			S-1515.136-66.851-1517.359-66.851z M-1517.359-60.18c-0.511,0-0.989-0.145-1.394-0.401c-0.751-0.467-1.25-1.294-1.25-2.243
			c0-0.39,0.084-0.762,0.24-1.094c0.416-0.911,1.339-1.55,2.404-1.55c1.462,0,2.64,1.182,2.64,2.637
			C-1514.715-61.364-1515.897-60.18-1517.359-60.18z"/>
		<path fill="#BF2126" d="M-1530.196-49.549c-0.773,0-1.495,0.218-2.111,0.601c-3.056-1.812-6.12-3.61-9.198-5.389
			c-0.839-0.482-1.017-1.055-1.162-2.05c-0.088-0.61-0.194-1.11-0.321-1.526c-0.117-0.379-0.029-0.79,0.238-1.079l1.801-1.918
			c-1.149-0.288-2.078-1.149-2.439-2.276l-2.333,2.494c-0.132,0.139-0.209,0.31-0.22,0.489v0.004
			c-0.062,0.123-0.079,0.302-0.079,0.517c-0.004,0.944-0.066,4.011-0.048,4.639c0.033,1.389,0.332,2.177,1.565,2.86
			c3.489,1.946,6.95,3.945,10.338,6.061c-0.029,0.2-0.044,0.401-0.044,0.605c0,2.224,1.81,4.029,4.026,4.029
			c2.221,0,4.027-1.805,4.027-4.029C-1526.159-47.737-1527.975-49.549-1530.196-49.549z M-1530.196-42.883
			c-1.394,0-2.538-1.083-2.633-2.455c-0.007-0.062-0.007-0.121-0.007-0.183c0-1.239,0.85-2.279,2.001-2.56
			c0.205-0.051,0.416-0.079,0.638-0.079c1.462,0,2.64,1.184,2.64,2.64C-1527.552-44.058-1528.734-42.883-1530.196-42.883z"/>
		<path fill="#BF2126" d="M-1543.139-68.13l-3.34-0.777c-0.205-0.044-0.41-0.018-0.583,0.073c-0.106,0.026-0.233,0.088-0.372,0.165
			c-0.821,0.467-3.509,1.94-4.049,2.268c-1.184,0.715-1.717,1.372-1.7,2.783c0.055,4.055,0.037,8.117-0.117,12.172
			c-1.378,0.638-2.334,2.039-2.334,3.654c0,2.221,1.805,4.027,4.027,4.027c2.224,0,4.029-1.805,4.029-4.027
			c0-1.616-0.962-3.016-2.34-3.654c0.051-3.544,0.09-7.089,0.095-10.633c0.007-0.973,0.412-1.411,1.195-2.028
			c0.482-0.379,0.872-0.715,1.167-1.044c0.26-0.277,0.656-0.396,1.028-0.313l2.527,0.583
			C-1544.211-66.012-1543.929-67.251-1543.139-68.13z M-1548.955-47.799c0,1.462-1.182,2.64-2.64,2.64
			c-1.46,0-2.637-1.184-2.637-2.64c0-0.821,0.379-1.561,0.966-2.043c0.456-0.372,1.039-0.601,1.671-0.601
			c0.634,0,1.217,0.222,1.673,0.594C-1549.334-49.36-1548.955-48.62-1548.955-47.799z"/>
		<path fill="#BF2126" d="M-1539.652-73.68c-0.07-0.249-0.255-0.443-0.471-0.544h-0.007c-0.059-0.044-0.128-0.088-0.205-0.132
			c-0.81-0.484-3.428-2.078-3.978-2.384c-1.215-0.671-2.043-0.81-3.26-0.088c-3.56,2.111-7.17,4.161-10.842,6.076
			c-0.634-0.416-1.389-0.654-2.199-0.654c-2.224,0-4.029,1.803-4.029,4.027c0,2.221,1.805,4.027,4.029,4.027
			c2.221,0,4.026-1.805,4.026-4.027c0-0.167-0.011-0.328-0.029-0.489c3.139-1.744,6.268-3.494,9.389-5.273
			c0.843-0.482,1.427-0.35,2.349,0.029c0.577,0.233,1.061,0.394,1.488,0.493c0.383,0.09,0.678,0.379,0.79,0.751l0.7,2.406
			c0.837-0.839,2.05-1.189,3.21-0.929L-1539.652-73.68z M-1560.61-64.735c-1.46,0-2.637-1.184-2.637-2.64s1.182-2.637,2.637-2.637
			c0.295,0,0.583,0.051,0.85,0.139l0,0c1.046,0.354,1.794,1.339,1.794,2.499c0,0.095-0.004,0.185-0.015,0.28
			C-1558.12-65.767-1559.249-64.735-1560.61-64.735z"/>
		<path fill="#BF2126" d="M-1531.935-75.773c-0.037-1.389-0.35-2.171-1.587-2.849c-3.635-1.984-7.245-4.04-10.765-6.217
			c0.004-0.066,0.004-0.132,0.004-0.2c0-2.221-1.812-4.027-4.026-4.027c-2.224,0-4.029,1.805-4.029,4.027
			c0,2.224,1.805,4.029,4.029,4.029c0.916,0,1.761-0.306,2.433-0.823c3.111,1.812,6.226,3.617,9.361,5.394
			c0.843,0.478,1.026,1.05,1.182,2.039c0.095,0.601,0.194,1.083,0.321,1.501c0.117,0.372,0.022,0.771-0.249,1.055l-1.739,1.856
			c1.149,0.288,2.078,1.156,2.433,2.283l2.34-2.494c0.125-0.139,0.198-0.295,0.22-0.467v-0.004c0.04-0.123,0.057-0.28,0.057-0.462
			C-1531.957-72.079-1531.918-75.146-1531.935-75.773z M-1547.245-82.626c-0.328,0.143-0.689,0.227-1.072,0.227
			c-1.46,0-2.637-1.184-2.637-2.64c0-1.46,1.182-2.637,2.637-2.637c1.283,0,2.356,0.916,2.589,2.127
			c0.033,0.167,0.051,0.339,0.051,0.511C-1545.677-83.967-1546.322-83.038-1547.245-82.626z"/>
	</g>
	<g id="SvgjsG3124" transform="matrix(2.0243621702050802,0,0,2.0243621702050802,155.03190083252673,0.2586990266940923)">
		<path fill="#010101" d="M-75.997-3.83c-0.07,0.062-0.161,0.094-0.267,0.094c-0.22,0-0.407-0.163-0.407-0.4
			c0-0.237,0.187-0.4,0.407-0.4c0.104,0,0.194,0.033,0.262,0.092l-0.108,0.121c-0.039-0.027-0.091-0.046-0.143-0.046
			c-0.137,0-0.231,0.098-0.231,0.232c0,0.134,0.094,0.232,0.231,0.232c0.054,0,0.11-0.021,0.149-0.052L-75.997-3.83z M-75.504-4.535
			c0.22,0,0.404,0.163,0.404,0.4c0,0.237-0.184,0.4-0.404,0.4c-0.22,0-0.404-0.163-0.404-0.4
			C-75.908-4.372-75.724-4.535-75.504-4.535L-75.504-4.535z M-75.504-3.903c0.125,0,0.219-0.098,0.219-0.232
			c0-0.134-0.093-0.232-0.219-0.232c-0.126,0-0.218,0.098-0.218,0.232C-75.722-4.001-75.63-3.903-75.504-3.903z M-74.481-4.524
			h0.179v0.778h-0.137l-0.364-0.452v0.452h-0.179v-0.778h0.139l0.362,0.452V-4.524z M-73.667-4.524h0.179v0.778h-0.137l-0.364-0.452
			v0.452h-0.179v-0.778h0.139l0.362,0.452V-4.524z M-73.176-3.911h0.319v0.164h-0.341h-0.157v-0.778h0.179h0.309v0.164h-0.309v0.141
			h0.231v0.161h-0.231V-3.911L-73.176-3.911z M-72.084-3.83c-0.07,0.062-0.161,0.094-0.267,0.094c-0.22,0-0.407-0.163-0.407-0.4
			c0-0.237,0.187-0.4,0.407-0.4c0.104,0,0.194,0.033,0.262,0.092l-0.108,0.121c-0.039-0.027-0.091-0.046-0.143-0.046
			c-0.137,0-0.231,0.098-0.231,0.232c0,0.134,0.094,0.232,0.231,0.232c0.054,0,0.11-0.021,0.149-0.052L-72.084-3.83z M-71.444-4.524
			v0.164h-0.189v0.613h-0.179V-4.36h-0.189v-0.164H-71.444z M-71.154-3.911h0.319v0.164h-0.341h-0.157v-0.778h0.179h0.309v0.164
			h-0.309v0.141h0.231v0.161h-0.231V-3.911L-71.154-3.911z M-70.43-4.524c0.22,0,0.394,0.173,0.394,0.383
			c0,0.221-0.175,0.394-0.394,0.394h-0.289v-0.778H-70.43z M-70.431-3.915c0.141,0,0.212-0.102,0.212-0.225
			c0-0.112-0.071-0.214-0.212-0.214h-0.109v0.44H-70.431z"/>
	</g>
</g>
</svg>
